<?xml version="1.0" standalone="no"?>
<!DOCTYPE svg PUBLIC "-//W3C//DTD SVG 20010904//EN"
 "http://www.w3.org/TR/2001/REC-SVG-20010904/DTD/svg10.dtd">
<svg version="1.0" xmlns="http://www.w3.org/2000/svg"
 width="220.000000pt" height="220.000000pt" viewBox="0 0 220.000000 220.000000"
 preserveAspectRatio="xMidYMid meet">
<metadata>
Created by potrace 1.14, written by Peter Selinger 2001-2017
</metadata>
<g transform="translate(0.000000,220.000000) scale(0.100000,-0.100000)"
fill="#000000" stroke="none">
<path d="M880 1979 c-19 -5 -51 -11 -70 -15 -19 -3 -37 -8 -39 -10 -2 -2 -11
2 -19 9 -13 9 -14 9 -8 0 5 -9 0 -13 -13 -13 -20 0 -50 -19 -75 -48 -6 -7 -17
-19 -24 -27 -11 -12 -11 -15 0 -15 10 0 10 -2 1 -8 -11 -7 -41 -69 -44 -89 -1
-9 -16 -49 -26 -73 -3 -8 -7 -17 -8 -20 -12 -47 -64 -135 -89 -152 -6 -4 -8
-8 -3 -8 4 0 1 -12 -6 -27 -8 -16 -14 -56 -13 -96 1 -37 -3 -67 -7 -67 -5 0
-6 -4 -2 -9 3 -5 1 -12 -4 -16 -5 -3 -8 -14 -6 -25 2 -11 1 -20 -3 -20 -8 0
-13 -79 -15 -267 -1 -73 -5 -133 -8 -133 -3 0 -4 -13 -3 -28 1 -15 -3 -53 -8
-84 l-10 -56 -34 8 c-20 5 -34 4 -34 -2 0 -5 -4 -6 -10 -3 -5 3 -10 2 -10 -3
0 -4 -9 -18 -20 -30 -12 -13 -16 -22 -8 -22 6 0 3 -7 -8 -15 -13 -11 -14 -14
-4 -13 8 2 14 -2 13 -9 -2 -7 20 -16 52 -23 30 -6 56 -17 56 -23 2 -16 7 -45
14 -82 14 -75 11 -88 -26 -126 -19 -20 -36 -43 -37 -50 -7 -54 -7 -87 0 -83 4
3 8 -1 8 -8 0 -7 14 -29 30 -48 16 -19 31 -42 31 -50 3 -27 7 -75 8 -87 1 -10
173 -13 825 -13 810 0 825 0 821 19 -4 23 -75 121 -87 121 -4 0 -8 5 -8 11 0
6 -12 20 -26 31 -29 24 -45 58 -49 108 -2 19 -4 35 -5 35 -1 0 -3 16 -5 35 -9
91 -15 137 -21 160 -3 14 -7 32 -8 40 -1 9 -4 20 -8 25 -3 6 -9 24 -13 40 -12
44 -12 45 -15 50 -1 3 -3 8 -4 13 -1 4 -5 13 -9 20 -5 6 -5 17 -2 22 3 6 1 10
-5 10 -6 0 -10 8 -9 18 1 9 0 19 -1 22 -3 9 -8 45 -14 105 -17 171 -19 185
-29 202 -8 12 29 20 124 29 24 2 59 5 77 7 18 2 35 0 38 -4 7 -11 34 1 34 15
0 7 -25 34 -56 61 -31 28 -71 65 -90 83 -18 17 -36 32 -39 32 -3 0 -15 8 -26
18 -10 11 -32 25 -47 33 -15 7 -42 26 -60 41 -18 16 -37 28 -43 28 -6 0 -8 3
-6 8 3 4 1 16 -3 27 -4 11 -4 29 0 40 11 28 -10 85 -51 137 -19 24 -37 45 -41
46 -5 2 -8 8 -8 13 0 12 -37 49 -50 49 -5 0 -10 4 -10 9 0 12 -124 102 -175
126 -22 11 -42 22 -45 25 -3 3 -9 6 -15 6 -5 1 -44 9 -85 18 -41 9 -85 18 -97
19 -13 0 -23 4 -23 8 0 7 -30 15 -85 23 -16 2 -46 0 -65 -5z"/>
</g>
</svg>
